<svg xmlns="http://www.w3.org/2000/svg" viewBox="0 0 64 64" width="64" height="64">
  <!-- Background rounded rect -->
  <rect width="64" height="64" rx="14" fill="#5865F2"/>
  <!-- Discord logo (Clyde) path, centered and scaled -->
  <path d="M42.5 20.2c-2.6-1.2-5.4-2.1-8.3-2.6-.4.7-.8 1.5-1 2.2-3.1-.5-6.1-.5-9.1 0-.3-.7-.7-1.5-1-2.2-2.9.5-5.7 1.4-8.3 2.6C9.2 27.9 7.8 35.3 8.4 42.6c3.3 2.4 6.5 3.9 9.6 4.9.8-1 1.5-2.1 2.1-3.3-.8-.3-1.6-.7-2.3-1.1l.6-.4c4.5 2.1 9.5 2.1 13.9 0l.6.4c-.8.4-1.5.8-2.4 1.1.6 1.2 1.3 2.3 2.1 3.3 3.1-.9 6.3-2.4 9.6-4.9.8-8.3-1.3-15.6-6.3-22.4zM24.3 38.3c-2 0-3.7-1.9-3.7-4.2s1.6-4.2 3.7-4.2c2 0 3.7 1.9 3.7 4.2s-1.7 4.2-3.7 4.2zm13.4 0c-2 0-3.7-1.9-3.7-4.2s1.6-4.2 3.7-4.2c2 0 3.7 1.9 3.7 4.2s-1.7 4.2-3.7 4.2z" fill="white"/>
</svg>
