<?xml version="1.0" encoding="UTF-8"?>
<svg id="Layer_2" data-name="Layer 2" xmlns="http://www.w3.org/2000/svg" viewBox="0 0 238.1 151.22">
  <defs>
    <style>
      .cls-1 {
        fill: #f57f20;
      }
    </style>
  </defs>
  <g id="Layer_1-2" data-name="Layer 1">
    <path class="cls-1" d="M238.04,31.73c.04-.5.06-1.26.06-2.3,0-5.42-1.32-9.73-3.94-12.92-2.63-3.19-6.59-4.78-11.89-4.78-3.35,0-6.19.76-8.51,2.27-2.32,1.51-4.05,3.58-5.18,6.21-1.14,2.63-1.71,5.62-1.71,8.97s.57,6.38,1.71,9.07c1.14,2.69,2.88,4.82,5.22,6.4,2.34,1.57,5.21,2.36,8.6,2.36,3.77,0,7.04-.96,9.81-2.89,2.77-1.93,4.59-4.67,5.46-8.23h-8.82c-.58,1.28-1.36,2.21-2.33,2.79-.97.58-2.2.87-3.69.87-4.35,0-6.62-2.61-6.83-7.82h22.04ZM228.97,25.89h-12.98c.16-2.07.79-3.71,1.86-4.94,1.08-1.22,2.61-1.83,4.6-1.83,4.14,0,6.31,2.26,6.52,6.77h0ZM196.31,45.89h8.38V1.24h-8.57v15.77c-1.12-1.74-2.52-3.04-4.19-3.91-1.68-.87-3.55-1.3-5.62-1.3s-3.83.41-5.4,1.24c-1.57.83-3.02,2.07-4.35,3.73-2.52,3.31-3.79,7.58-3.79,12.79,0,2.98.49,5.8,1.46,8.45.97,2.65,2.49,4.81,4.56,6.49,2.07,1.68,4.62,2.52,7.64,2.52,2.19,0,4.08-.46,5.65-1.37,1.57-.91,2.98-2.32,4.22-4.22v4.47h0ZM196.12,29.19c0,2.94-.53,5.38-1.58,7.33-1.06,1.95-2.93,2.92-5.62,2.92s-4.59-.97-5.68-2.92c-1.1-1.95-1.65-4.39-1.65-7.33,0-2.65.57-4.94,1.71-6.86,1.14-1.93,2.95-2.89,5.43-2.89,2.61,0,4.49.92,5.65,2.76,1.16,1.84,1.74,4.17,1.74,6.99h0ZM163.13,45.89h9.19v-1.49c-.79-.37-1.29-.94-1.52-1.71-.23-.76-.34-1.73-.34-2.89v-18.75c0-3.48-1.4-5.9-4.19-7.27-2.79-1.37-6.16-2.05-10.09-2.05s-7.06.9-9.62,2.7c-2.57,1.8-3.85,4.52-3.85,8.17v.62h8.26c0-1.66.48-2.84,1.43-3.54.95-.7,2.32-1.06,4.1-1.06s3.02.24,3.97.71c.95.48,1.43,1.48,1.43,3.01,0,1.08-.55,1.82-1.65,2.23-1.1.41-2.87.81-5.31,1.18-2.73.37-5,.84-6.8,1.4-1.8.56-3.35,1.57-4.66,3.04-1.3,1.47-1.96,3.59-1.96,6.36,0,3.31.84,5.89,2.51,7.73,1.68,1.84,4.17,2.76,7.48,2.76,2.23,0,4.28-.43,6.15-1.3,1.86-.87,3.35-2.19,4.47-3.97.08,1.66.41,3.02.99,4.1h0ZM162.02,32.79c0,2.32-.69,4.15-2.08,5.5-1.39,1.35-3.26,2.02-5.62,2.02-1.28,0-2.33-.34-3.14-1.02-.81-.68-1.21-1.67-1.21-2.95,0-1.2.39-2.18,1.18-2.95.79-.77,1.89-1.29,3.32-1.58,1.43-.29,2.29-.48,2.58-.56,1.99-.41,3.64-.93,4.97-1.55v3.1h0ZM143.27,147.25c-.89,0-1.5-.16-1.82-.49-.32-.32-.48-1.15-.48-2.49v-17.59c0-3.19-1-5.62-3-7.28-2-1.66-4.93-2.49-8.79-2.49s-6.96.94-9.25,2.8c-2.28,1.87-3.47,4.41-3.55,7.63l3.67.03c.12-2.36.95-4.15,2.49-5.35,1.54-1.2,3.75-1.8,6.64-1.8s4.9.54,6.14,1.62c1.24,1.08,1.86,2.88,1.86,5.38,0,2.02-1.54,3.35-4.61,3.98-.45.08-.8.15-1.06.21-.45.04-1.1.1-1.97.16-4.49.34-7.69.94-9.61,1.81-1.68.8-2.96,1.88-3.84,3.25-.88,1.37-1.32,2.97-1.32,4.81,0,2.83.97,5.09,2.9,6.79,1.93,1.7,4.52,2.55,7.78,2.55,2.28,0,4.42-.46,6.4-1.36,1.98-.91,3.82-2.28,5.52-4.12v.51c0,1.48.38,2.59,1.15,3.34.77.75,1.92,1.12,3.46,1.12.38,0,.81-.03,1.27-.08.46-.05.93-.13,1.39-.23v-2.79c-.22.02-.43.03-.64.04-.2.01-.45.02-.73.02h0ZM137.11,137.54c0,3.05-1.02,5.46-3.05,7.23-2.03,1.77-4.76,2.65-8.17,2.65-2.24,0-4.02-.55-5.32-1.64-1.3-1.09-1.96-2.56-1.96-4.4,0-1.62.61-3,1.82-4.15,1.21-1.15,3.01-2.04,5.4-2.67,3.44-.18,5.93-.38,7.47-.61,1.55-.22,2.82-.52,3.81-.88v4.46h0ZM138.29,20.99h2.92v-8.94c-.29-.04-.72-.06-1.3-.06-2.24,0-4.11.56-5.62,1.68-1.51,1.12-2.8,2.75-3.88,4.91v-5.65h-8.2v32.97h8.82v-17.45c0-4.97,2.42-7.45,7.27-7.45h0ZM117.93,46.2l1.68-.06v-6.64c-.17,0-.85.01-2.05.03-1.2.02-2.03-.13-2.48-.47-.37-.29-.56-.85-.56-1.68v-18.26h5.09v-6.21h-5.09V3.91h-8.76v9.01h-4.35v6.21h4.35v17.82c0,2.4.25,4.26.74,5.59s1.37,2.29,2.61,2.89c1.24.6,3.06.9,5.46.9.74,0,1.86-.04,3.35-.12h0ZM101.9,44.4c-.79-.37-1.29-.94-1.52-1.71-.23-.76-.34-1.73-.34-2.89v-18.75c0-3.48-1.4-5.9-4.19-7.27-2.79-1.37-6.16-2.05-10.09-2.05s-7.06.9-9.62,2.7c-2.57,1.8-3.85,4.52-3.85,8.17v.62h8.26c0-1.66.48-2.84,1.43-3.54.95-.7,2.32-1.06,4.1-1.06s3.02.24,3.97.71c.95.48,1.43,1.48,1.43,3.01,0,1.08-.55,1.82-1.64,2.23-1.1.41-2.87.81-5.31,1.18-2.73.37-5,.84-6.8,1.4-1.8.56-3.35,1.57-4.66,3.04-1.3,1.47-1.96,3.59-1.96,6.36,0,3.31.84,5.89,2.52,7.73,1.68,1.84,4.17,2.76,7.48,2.76,2.23,0,4.29-.43,6.15-1.3,1.86-.87,3.35-2.19,4.47-3.97.08,1.66.41,3.02.99,4.1h9.19v-1.49h0ZM91.6,32.79c0,2.32-.69,4.15-2.08,5.5-1.39,1.35-3.26,2.02-5.62,2.02-1.28,0-2.33-.34-3.14-1.02-.81-.68-1.21-1.67-1.21-2.95,0-1.2.39-2.18,1.18-2.95.79-.77,1.89-1.29,3.32-1.58,1.43-.29,2.29-.48,2.58-.56,1.99-.41,3.64-.93,4.97-1.55v3.1h0ZM69.43,31.73c.04-.5.06-1.26.06-2.3,0-5.42-1.32-9.73-3.94-12.92-2.63-3.19-6.59-4.78-11.89-4.78-3.35,0-6.19.76-8.51,2.27-2.32,1.51-4.05,3.58-5.19,6.21-1.14,2.63-1.71,5.62-1.71,8.97s.57,6.38,1.71,9.07c1.14,2.69,2.88,4.82,5.22,6.4,2.34,1.57,5.2,2.36,8.6,2.36,3.77,0,7.04-.96,9.81-2.89,2.77-1.93,4.6-4.67,5.47-8.23h-8.82c-.58,1.28-1.36,2.21-2.33,2.79-.97.58-2.2.87-3.69.87-4.35,0-6.62-2.61-6.83-7.82h22.05ZM60.36,25.89h-12.98c.16-2.07.79-3.71,1.86-4.94,1.08-1.22,2.61-1.83,4.6-1.83,4.14,0,6.31,2.26,6.52,6.77h0ZM40.86,68.06c-.33-5.3-2.2-9.28-5.62-11.95-3.41-2.67-7.85-4.01-13.32-4.01-7.2,0-12.63,2.09-16.27,6.27C2.01,62.56.19,68.31.19,75.64c0,4.64.76,8.72,2.27,12.23,1.51,3.52,3.83,6.28,6.95,8.29,3.12,2.01,7.03,3.01,11.71,3.01,3.56,0,6.8-.62,9.72-1.86,2.92-1.24,5.28-3.11,7.08-5.59,1.8-2.48,2.8-5.53,3.01-9.13h-9c-.54,2.73-1.69,4.79-3.45,6.18-1.76,1.39-4.05,2.08-6.86,2.08-4.22,0-7.29-1.43-9.19-4.28-1.91-2.86-2.86-6.5-2.86-10.93s.95-8.35,2.86-11.15c1.9-2.79,5.07-4.19,9.5-4.19,2.73,0,4.97.63,6.71,1.89,1.74,1.26,2.79,3.22,3.17,5.87h9.07ZM9.56,12.92c0-1.95.72-3.33,2.17-4.16,1.45-.83,3.23-1.24,5.34-1.24,5.59,0,8.55,2.21,8.88,6.65h8.82c-.13-4.72-1.75-8.26-4.88-10.62-3.13-2.36-7.13-3.54-12.02-3.54S8.7,1.05,5.5,3.14C2.29,5.23.68,8.67.68,13.48s1.61,8.01,4.84,10.12c1.12.7,2.34,1.26,3.66,1.68,1.32.42,3.08.87,5.28,1.37.25.08.43.12.56.12.08.04.19.07.31.09.12.02.23.05.31.09,2.98.74,5.67,1.62,8.07,2.64,2.4,1.02,3.6,2.37,3.6,4.07,0,3.77-2.69,5.65-8.07,5.65-2.86,0-5.18-.54-6.96-1.61-1.78-1.08-2.86-2.94-3.23-5.59H0c.25,5.09,2.05,8.87,5.4,11.33,3.35,2.46,7.68,3.7,12.98,3.7s9.56-1.18,12.92-3.54c3.35-2.36,5.03-6.07,5.03-11.12,0-4.59-1.82-7.93-5.46-10-1.24-.7-2.57-1.28-3.97-1.74-1.41-.46-3.17-.93-5.28-1.43l-1.24-.31c.12.04-.31-.06-1.3-.31-2.77-.66-5.05-1.4-6.83-2.2-1.78-.81-2.67-2-2.67-3.57h0ZM66.6,116.93c-4.69,0-8.32,1.48-10.9,4.44-2.58,2.96-3.87,7.14-3.87,12.54s1.29,9.54,3.87,12.48c2.58,2.94,6.21,4.41,10.9,4.41s8.39-1.47,10.98-4.43c2.59-2.95,3.88-7.1,3.88-12.46s-1.3-9.58-3.9-12.54c-2.6-2.96-6.25-4.44-10.96-4.44h0ZM66.6,120.23c3.5,0,6.2,1.19,8.09,3.56,1.9,2.38,2.85,5.75,2.85,10.11s-.95,7.73-2.85,10.1c-1.9,2.36-4.6,3.55-8.09,3.55s-6.14-1.19-8.05-3.58c-1.91-2.39-2.86-5.74-2.86-10.07s.95-7.71,2.86-10.1c1.91-2.39,4.59-3.58,8.05-3.58h0ZM51.91,64.96h-8.2v32.98h8.82v-17.45c0-4.97,2.42-7.45,7.27-7.45h2.92v-8.94c-.29-.04-.72-.06-1.3-.06-2.24,0-4.11.56-5.62,1.68-1.51,1.12-2.8,2.75-3.88,4.91v-5.65h0ZM44.91,149.98h3.7v-44.66h-3.7v44.66h0ZM35.96,130.72v.18c0,5.24-1.37,9.3-4.11,12.19-2.74,2.89-6.56,4.34-11.48,4.34s-8.62-1.79-11.43-5.37c-2.81-3.58-4.21-8.43-4.21-14.55s1.4-11.2,4.2-14.63c2.8-3.43,6.78-5.14,11.93-5.14,3.8,0,6.96.94,9.49,2.82,2.53,1.88,4.1,4.47,4.73,7.76h4.22c-.65-4.49-2.59-7.97-5.84-10.45-3.24-2.48-7.46-3.71-12.66-3.71-6.23,0-11.16,2.09-14.8,6.26-3.64,4.17-5.46,9.89-5.46,17.15s1.78,13.09,5.35,17.31c3.57,4.23,8.45,6.34,14.66,6.34,3.54,0,6.68-.8,9.42-2.41,2.74-1.61,4.8-3.85,6.17-6.72l.42,7.88h3.3v-22.92h-18.65v3.67h14.74ZM85.63,64.96v19.5c0,2.15-.6,3.85-1.8,5.09-1.2,1.24-2.86,1.86-4.97,1.86-1.99,0-3.33-.55-4.04-1.65-.71-1.1-1.06-2.72-1.06-4.88v-19.93h-8.82v22.48c0,7.58,3.62,11.36,10.87,11.36,4.1,0,7.43-1.59,10-4.78v3.91h8.63v-32.98h-8.82ZM99.39,116.93c-2.57,0-4.79.55-6.67,1.64-1.88,1.09-3.43,2.73-4.64,4.91v-18.16h-3.73v44.66h3.73v-5.58c1.11,2.1,2.61,3.71,4.5,4.81,1.89,1.1,4.08,1.65,6.56,1.65,4.49,0,8.03-1.52,10.63-4.55,2.6-3.03,3.9-7.17,3.9-12.4s-1.28-9.4-3.84-12.43c-2.56-3.03-6.04-4.55-10.45-4.55h0ZM106.87,123.79c1.89,2.38,2.84,5.75,2.84,10.11s-.94,7.76-2.82,10.11c-1.88,2.35-4.57,3.53-8.07,3.53s-6.09-1.2-8.02-3.61c-1.93-2.4-2.9-5.75-2.9-10.04s.94-7.76,2.83-10.13c1.89-2.36,4.58-3.55,8.08-3.55s6.16,1.19,8.05,3.56h0ZM98.46,61.29h8.82v-8.01h-8.82v8.01h0ZM107.27,64.96h-8.82v32.98h8.82v-32.98h0ZM119.82,73.65c0-2.03,1.66-3.04,4.97-3.04,1.61,0,2.97.36,4.07,1.09,1.1.73,1.67,1.83,1.71,3.32h8.57c-.17-3.85-1.59-6.68-4.28-8.51-2.69-1.82-6.07-2.73-10.12-2.73-3.81,0-7.02.92-9.62,2.76-2.61,1.84-3.91,4.58-3.91,8.23,0,2.53.83,4.53,2.48,6.02.99.87,2.31,1.64,3.94,2.3,1.64.66,3.3,1.2,5,1.61-.04,0,.43.1,1.43.31,2.19.5,3.95,1.01,5.28,1.55,1.32.54,1.99,1.3,1.99,2.3,0,1.24-.55,2.1-1.65,2.58-1.1.48-2.35.71-3.76.71-4.47,0-6.77-1.66-6.89-4.97h-8.82v.37c0,3.89,1.4,6.78,4.19,8.66,2.79,1.88,6.24,2.83,10.34,2.83,4.51,0,8.22-.87,11.12-2.61,2.9-1.74,4.35-4.7,4.35-8.88,0-2.61-.81-4.66-2.42-6.15-1.16-1.08-2.68-1.91-4.56-2.52-1.89-.6-4.15-1.19-6.8-1.77-4.39-.99-6.58-2.15-6.58-3.48h0ZM143.69,90.3c1.14,2.69,2.88,4.82,5.22,6.4,2.34,1.57,5.21,2.36,8.6,2.36,3.77,0,7.04-.96,9.81-2.89,2.77-1.93,4.6-4.67,5.46-8.23h-8.82c-.58,1.28-1.36,2.22-2.33,2.79-.97.58-2.2.87-3.69.87-4.35,0-6.62-2.61-6.83-7.83h22.05c.04-.5.06-1.26.06-2.3,0-5.42-1.31-9.73-3.94-12.92-2.63-3.19-6.59-4.78-11.89-4.78-3.35,0-6.19.76-8.51,2.27-2.32,1.51-4.05,3.58-5.18,6.21-1.14,2.63-1.71,5.62-1.71,8.97s.57,6.38,1.71,9.07h0ZM151.12,77.94c.17-2.07.79-3.71,1.86-4.94,1.08-1.22,2.61-1.83,4.6-1.83,4.14,0,6.31,2.26,6.52,6.77h-12.98ZM146.2,149.98h3.7v-44.66h-3.7v44.66h0Z"/>
  </g>
</svg>