<?xml version="1.0" encoding="UTF-8"?>
<svg id="Layer_2" data-name="Layer 2" xmlns="http://www.w3.org/2000/svg" viewBox="0 0 72 46">
  <defs>
    <style>
      .cls-1 {
        fill: #fff;
      }
    </style>
  </defs>
  <g id="Layer_2-2" data-name="Layer 2">
    <g>
      <path class="cls-1" d="M1,28.5c-.55,0-1-.45-1-1v-9c0-.55.45-1,1-1s1,.45,1,1v9c0,.55-.45,1-1,1Z"/>
      <path class="cls-1" d="M6,31.5c-.55,0-1-.45-1-1v-15c0-.55.45-1,1-1s1,.45,1,1v15c0,.55-.45,1-1,1Z"/>
      <path class="cls-1" d="M11,34.5c-.55,0-1-.45-1-1V12.5c0-.55.45-1,1-1s1,.45,1,1v21c0,.55-.45,1-1,1Z"/>
      <path class="cls-1" d="M16,37.5c-.55,0-1-.45-1-1V9.5c0-.55.45-1,1-1s1,.45,1,1v27c0,.55-.45,1-1,1Z"/>
      <path class="cls-1" d="M36,46c-.55,0-1-.45-1-1V1c0-.55.45-1,1-1s1,.45,1,1v44c0,.55-.45,1-1,1Z"/>
      <path class="cls-1" d="M51,30c-.55,0-1-.45-1-1v-12c0-.55.45-1,1-1s1,.45,1,1v12c0,.55-.45,1-1,1Z"/>
      <path class="cls-1" d="M46,34.5c-.55,0-1-.45-1-1V12.5c0-.55.45-1,1-1s1,.45,1,1v21c0,.55-.45,1-1,1Z"/>
      <path class="cls-1" d="M41,39c-.55,0-1-.45-1-1V8c0-.55.45-1,1-1s1,.45,1,1v30c0,.55-.45,1-1,1Z"/>
      <path class="cls-1" d="M21,30c-.55,0-1-.45-1-1v-12c0-.55.45-1,1-1s1,.45,1,1v12c0,.55-.45,1-1,1Z"/>
      <path class="cls-1" d="M26,34.5c-.55,0-1-.45-1-1V12.5c0-.55.45-1,1-1s1,.45,1,1v21c0,.55-.45,1-1,1Z"/>
      <path class="cls-1" d="M31,39c-.55,0-1-.45-1-1V8c0-.55.45-1,1-1s1,.45,1,1v30c0,.55-.45,1-1,1Z"/>
      <path class="cls-1" d="M56,34c-.55,0-1-.45-1-1V13c0-.55.45-1,1-1s1,.45,1,1v20c0,.55-.45,1-1,1Z"/>
      <path class="cls-1" d="M61,37.5c-.55,0-1-.45-1-1V9.5c0-.55.45-1,1-1s1,.45,1,1v27c0,.55-.45,1-1,1Z"/>
      <path class="cls-1" d="M66,32c-.55,0-1-.45-1-1V15c0-.55.45-1,1-1s1,.45,1,1v16c0,.55-.45,1-1,1Z"/>
      <path class="cls-1" d="M71,28.5c-.55,0-1-.45-1-1v-9c0-.55.45-1,1-1s1,.45,1,1v9c0,.55-.45,1-1,1Z"/>
    </g>
  </g>
</svg>